<svg id="Layer_1" data-name="Layer 1" xmlns="http://www.w3.org/2000/svg" viewBox="0 0 113.39 113.39"><defs><style>.cls-1{fill:#132641;}</style></defs><title>Pillars Symbol</title><path class="cls-1" d="M91.31,95.76H22.8a2.09,2.09,0,0,0,0,4.18h68.5a2.09,2.09,0,1,0,0-4.18Z"/><path class="cls-1" d="M28,89.91a1.88,1.88,0,0,0,1.88,1.88H82.33a1.88,1.88,0,1,0,0-3.76H29.9A1.88,1.88,0,0,0,28,89.91Z"/><path class="cls-1" d="M68.41,29.58h0v-.39a10.09,10.09,0,0,1,10-10.12h0a7.7,7.7,0,0,1,7.69,7.66,5.78,5.78,0,0,1-5.76,5.8h0a4.25,4.25,0,0,1-4.24-4.23s0-.06,0-.09H72.42s0,.07,0,.1a8,8,0,0,0,8,8,9.55,9.55,0,0,0,9.5-9.57A11.46,11.46,0,0,0,78.49,15.3h0A13.86,13.86,0,0,0,64.66,28.78V79.7l3.76-1.14Z"/><path class="cls-1" d="M32.23,36.27h0a8,8,0,0,0,8-8s0-.07,0-.1H36.49s0,.06,0,.09a4.24,4.24,0,0,1-4.24,4.23h0a5.78,5.78,0,0,1-5.76-5.8,7.7,7.7,0,0,1,7.69-7.66h0a10.09,10.09,0,0,1,10,10.12v49.4L48,79.72V28.79h0A13.86,13.86,0,0,0,34.21,15.3h0A11.46,11.46,0,0,0,22.72,26.7,9.55,9.55,0,0,0,32.23,36.27Z"/><polygon class="cls-1" points="57.89 81.76 57.89 39.37 54.13 39.37 54.13 81.59 56.28 82.25 57.89 81.76"/><polygon class="cls-1" points="74.39 39.37 74.39 76.74 78.15 75.59 78.15 39.37 74.39 39.37"/><polygon class="cls-1" points="34.08 39.37 34.08 75.45 37.84 76.61 37.84 39.37 34.08 39.37"/></svg>